<mxfile host="app.diagrams.net" modified="2022-10-17T15:50:18.750Z" agent="5.0 (Windows NT 10.0; Win64; x64) AppleWebKit/537.36 (KHTML, like Gecko) Chrome/105.0.0.0 Safari/537.36" etag="8y4yWveONrPElnHrxd16" version="20.4.1" type="github">
  <diagram id="LCbXn-3MXr7fc6zhFQKl" name="第 1 页">
    <mxGraphModel dx="1550" dy="1996" grid="1" gridSize="10" guides="1" tooltips="1" connect="1" arrows="1" fold="1" page="1" pageScale="1" pageWidth="827" pageHeight="1169" math="0" shadow="0">
      <root>
        <mxCell id="0" />
        <mxCell id="1" parent="0" />
        <mxCell id="TRvFklDj4OLgMswm-uFO-4" style="edgeStyle=orthogonalEdgeStyle;rounded=0;orthogonalLoop=1;jettySize=auto;html=1;exitX=1;exitY=0.5;exitDx=0;exitDy=0;entryX=0;entryY=0.5;entryDx=0;entryDy=0;" edge="1" parent="1" source="TRvFklDj4OLgMswm-uFO-1" target="TRvFklDj4OLgMswm-uFO-2">
          <mxGeometry relative="1" as="geometry" />
        </mxCell>
        <mxCell id="TRvFklDj4OLgMswm-uFO-21" style="edgeStyle=orthogonalEdgeStyle;rounded=0;orthogonalLoop=1;jettySize=auto;html=1;exitX=1;exitY=0.5;exitDx=0;exitDy=0;entryX=0;entryY=0.5;entryDx=0;entryDy=0;" edge="1" parent="1" source="TRvFklDj4OLgMswm-uFO-1" target="TRvFklDj4OLgMswm-uFO-20">
          <mxGeometry relative="1" as="geometry" />
        </mxCell>
        <mxCell id="TRvFklDj4OLgMswm-uFO-37" style="edgeStyle=orthogonalEdgeStyle;rounded=0;orthogonalLoop=1;jettySize=auto;html=1;exitX=0;exitY=0.5;exitDx=0;exitDy=0;entryX=0;entryY=0.5;entryDx=0;entryDy=0;" edge="1" parent="1" source="TRvFklDj4OLgMswm-uFO-1" target="TRvFklDj4OLgMswm-uFO-13">
          <mxGeometry relative="1" as="geometry" />
        </mxCell>
        <mxCell id="TRvFklDj4OLgMswm-uFO-38" style="edgeStyle=orthogonalEdgeStyle;rounded=0;orthogonalLoop=1;jettySize=auto;html=1;exitX=0;exitY=0.5;exitDx=0;exitDy=0;entryX=0;entryY=0.5;entryDx=0;entryDy=0;" edge="1" parent="1" source="TRvFklDj4OLgMswm-uFO-1" target="TRvFklDj4OLgMswm-uFO-10">
          <mxGeometry relative="1" as="geometry" />
        </mxCell>
        <mxCell id="TRvFklDj4OLgMswm-uFO-39" style="edgeStyle=orthogonalEdgeStyle;rounded=0;orthogonalLoop=1;jettySize=auto;html=1;exitX=0;exitY=0.5;exitDx=0;exitDy=0;entryX=0;entryY=0.5;entryDx=0;entryDy=0;" edge="1" parent="1" source="TRvFklDj4OLgMswm-uFO-1" target="TRvFklDj4OLgMswm-uFO-9">
          <mxGeometry relative="1" as="geometry" />
        </mxCell>
        <mxCell id="TRvFklDj4OLgMswm-uFO-41" style="edgeStyle=orthogonalEdgeStyle;rounded=0;orthogonalLoop=1;jettySize=auto;html=1;exitX=0.5;exitY=1;exitDx=0;exitDy=0;" edge="1" parent="1" source="TRvFklDj4OLgMswm-uFO-1" target="TRvFklDj4OLgMswm-uFO-40">
          <mxGeometry relative="1" as="geometry" />
        </mxCell>
        <mxCell id="TRvFklDj4OLgMswm-uFO-1" value="三消" style="rounded=1;whiteSpace=wrap;html=1;" vertex="1" parent="1">
          <mxGeometry x="70" y="210" width="100" height="40" as="geometry" />
        </mxCell>
        <mxCell id="TRvFklDj4OLgMswm-uFO-6" style="edgeStyle=orthogonalEdgeStyle;rounded=0;orthogonalLoop=1;jettySize=auto;html=1;exitX=1;exitY=0.5;exitDx=0;exitDy=0;entryX=0;entryY=0.5;entryDx=0;entryDy=0;" edge="1" parent="1" source="TRvFklDj4OLgMswm-uFO-2" target="TRvFklDj4OLgMswm-uFO-5">
          <mxGeometry relative="1" as="geometry" />
        </mxCell>
        <mxCell id="TRvFklDj4OLgMswm-uFO-2" value="固定棋盘" style="rounded=1;whiteSpace=wrap;html=1;" vertex="1" parent="1">
          <mxGeometry x="210" y="210" width="100" height="40" as="geometry" />
        </mxCell>
        <mxCell id="TRvFklDj4OLgMswm-uFO-8" style="edgeStyle=orthogonalEdgeStyle;rounded=0;orthogonalLoop=1;jettySize=auto;html=1;exitX=1;exitY=0.5;exitDx=0;exitDy=0;entryX=0;entryY=0.5;entryDx=0;entryDy=0;" edge="1" parent="1" source="TRvFklDj4OLgMswm-uFO-5" target="TRvFklDj4OLgMswm-uFO-7">
          <mxGeometry relative="1" as="geometry" />
        </mxCell>
        <mxCell id="TRvFklDj4OLgMswm-uFO-5" value="填充棋子" style="rounded=1;whiteSpace=wrap;html=1;" vertex="1" parent="1">
          <mxGeometry x="330" y="210" width="100" height="40" as="geometry" />
        </mxCell>
        <mxCell id="TRvFklDj4OLgMswm-uFO-22" style="edgeStyle=orthogonalEdgeStyle;rounded=0;orthogonalLoop=1;jettySize=auto;html=1;exitX=1;exitY=0.5;exitDx=0;exitDy=0;entryX=0;entryY=0.5;entryDx=0;entryDy=0;" edge="1" parent="1" source="TRvFklDj4OLgMswm-uFO-7" target="TRvFklDj4OLgMswm-uFO-18">
          <mxGeometry relative="1" as="geometry" />
        </mxCell>
        <mxCell id="TRvFklDj4OLgMswm-uFO-23" style="edgeStyle=orthogonalEdgeStyle;rounded=0;orthogonalLoop=1;jettySize=auto;html=1;exitX=1;exitY=0.5;exitDx=0;exitDy=0;entryX=0;entryY=0.5;entryDx=0;entryDy=0;" edge="1" parent="1" source="TRvFklDj4OLgMswm-uFO-7" target="TRvFklDj4OLgMswm-uFO-17">
          <mxGeometry relative="1" as="geometry" />
        </mxCell>
        <mxCell id="TRvFklDj4OLgMswm-uFO-26" style="edgeStyle=orthogonalEdgeStyle;rounded=0;orthogonalLoop=1;jettySize=auto;html=1;exitX=1;exitY=0.5;exitDx=0;exitDy=0;entryX=0;entryY=0.5;entryDx=0;entryDy=0;" edge="1" parent="1" source="TRvFklDj4OLgMswm-uFO-7" target="TRvFklDj4OLgMswm-uFO-19">
          <mxGeometry relative="1" as="geometry" />
        </mxCell>
        <mxCell id="TRvFklDj4OLgMswm-uFO-32" style="edgeStyle=orthogonalEdgeStyle;rounded=0;orthogonalLoop=1;jettySize=auto;html=1;exitX=1;exitY=0.5;exitDx=0;exitDy=0;entryX=0;entryY=0.5;entryDx=0;entryDy=0;" edge="1" parent="1" source="TRvFklDj4OLgMswm-uFO-7" target="TRvFklDj4OLgMswm-uFO-15">
          <mxGeometry relative="1" as="geometry" />
        </mxCell>
        <mxCell id="TRvFklDj4OLgMswm-uFO-33" style="edgeStyle=orthogonalEdgeStyle;rounded=0;orthogonalLoop=1;jettySize=auto;html=1;exitX=1;exitY=0.5;exitDx=0;exitDy=0;entryX=0;entryY=0.5;entryDx=0;entryDy=0;" edge="1" parent="1" source="TRvFklDj4OLgMswm-uFO-7" target="TRvFklDj4OLgMswm-uFO-16">
          <mxGeometry relative="1" as="geometry" />
        </mxCell>
        <mxCell id="TRvFklDj4OLgMswm-uFO-7" value="掉落补充" style="rounded=1;whiteSpace=wrap;html=1;" vertex="1" parent="1">
          <mxGeometry x="460" y="210" width="100" height="40" as="geometry" />
        </mxCell>
        <mxCell id="TRvFklDj4OLgMswm-uFO-30" style="edgeStyle=orthogonalEdgeStyle;rounded=0;orthogonalLoop=1;jettySize=auto;html=1;exitX=1;exitY=0.5;exitDx=0;exitDy=0;entryX=0;entryY=0.5;entryDx=0;entryDy=0;" edge="1" parent="1" source="TRvFklDj4OLgMswm-uFO-9" target="TRvFklDj4OLgMswm-uFO-27">
          <mxGeometry relative="1" as="geometry" />
        </mxCell>
        <mxCell id="TRvFklDj4OLgMswm-uFO-9" value="四消" style="rounded=1;whiteSpace=wrap;html=1;" vertex="1" parent="1">
          <mxGeometry x="70" y="-10" width="100" height="40" as="geometry" />
        </mxCell>
        <mxCell id="TRvFklDj4OLgMswm-uFO-29" style="edgeStyle=orthogonalEdgeStyle;rounded=0;orthogonalLoop=1;jettySize=auto;html=1;exitX=1;exitY=0.5;exitDx=0;exitDy=0;" edge="1" parent="1" source="TRvFklDj4OLgMswm-uFO-10">
          <mxGeometry relative="1" as="geometry">
            <mxPoint x="220" y="80" as="targetPoint" />
          </mxGeometry>
        </mxCell>
        <mxCell id="TRvFklDj4OLgMswm-uFO-10" value="五消" style="rounded=1;whiteSpace=wrap;html=1;" vertex="1" parent="1">
          <mxGeometry x="70" y="60" width="100" height="40" as="geometry" />
        </mxCell>
        <mxCell id="TRvFklDj4OLgMswm-uFO-31" style="edgeStyle=orthogonalEdgeStyle;rounded=0;orthogonalLoop=1;jettySize=auto;html=1;exitX=1;exitY=0.5;exitDx=0;exitDy=0;entryX=0;entryY=0.5;entryDx=0;entryDy=0;" edge="1" parent="1" source="TRvFklDj4OLgMswm-uFO-13" target="TRvFklDj4OLgMswm-uFO-27">
          <mxGeometry relative="1" as="geometry" />
        </mxCell>
        <mxCell id="TRvFklDj4OLgMswm-uFO-13" value="临近四格消除" style="rounded=1;whiteSpace=wrap;html=1;" vertex="1" parent="1">
          <mxGeometry x="70" y="130" width="100" height="40" as="geometry" />
        </mxCell>
        <mxCell id="TRvFklDj4OLgMswm-uFO-15" value="按颜色和个数" style="rounded=1;whiteSpace=wrap;html=1;" vertex="1" parent="1">
          <mxGeometry x="600" y="60" width="100" height="40" as="geometry" />
        </mxCell>
        <mxCell id="TRvFklDj4OLgMswm-uFO-16" value="按棋盘广度，果酱" style="rounded=1;whiteSpace=wrap;html=1;" vertex="1" parent="1">
          <mxGeometry x="600" y="110" width="100" height="40" as="geometry" />
        </mxCell>
        <mxCell id="TRvFklDj4OLgMswm-uFO-17" value="坚固棋子，冰块" style="rounded=1;whiteSpace=wrap;html=1;" vertex="1" parent="1">
          <mxGeometry x="600" y="170" width="100" height="40" as="geometry" />
        </mxCell>
        <mxCell id="TRvFklDj4OLgMswm-uFO-18" value="棋盘区域，小熊" style="rounded=1;whiteSpace=wrap;html=1;" vertex="1" parent="1">
          <mxGeometry x="600" y="230" width="100" height="40" as="geometry" />
        </mxCell>
        <mxCell id="TRvFklDj4OLgMswm-uFO-19" value="相邻障碍消除，巧克力" style="rounded=1;whiteSpace=wrap;html=1;" vertex="1" parent="1">
          <mxGeometry x="600" y="290" width="100" height="40" as="geometry" />
        </mxCell>
        <mxCell id="TRvFklDj4OLgMswm-uFO-20" value="多棋盘" style="rounded=1;whiteSpace=wrap;html=1;" vertex="1" parent="1">
          <mxGeometry x="210" y="150" width="100" height="40" as="geometry" />
        </mxCell>
        <mxCell id="TRvFklDj4OLgMswm-uFO-27" value="特殊棋子和功效" style="rounded=1;whiteSpace=wrap;html=1;" vertex="1" parent="1">
          <mxGeometry x="220" y="60" width="100" height="40" as="geometry" />
        </mxCell>
        <mxCell id="TRvFklDj4OLgMswm-uFO-44" style="edgeStyle=orthogonalEdgeStyle;rounded=0;orthogonalLoop=1;jettySize=auto;html=1;exitX=1;exitY=0.5;exitDx=0;exitDy=0;entryX=0;entryY=0.5;entryDx=0;entryDy=0;" edge="1" parent="1" source="TRvFklDj4OLgMswm-uFO-40" target="TRvFklDj4OLgMswm-uFO-42">
          <mxGeometry relative="1" as="geometry" />
        </mxCell>
        <mxCell id="TRvFklDj4OLgMswm-uFO-40" value="小棋盘" style="rounded=1;whiteSpace=wrap;html=1;" vertex="1" parent="1">
          <mxGeometry x="210" y="370" width="100" height="40" as="geometry" />
        </mxCell>
        <mxCell id="TRvFklDj4OLgMswm-uFO-45" style="edgeStyle=orthogonalEdgeStyle;rounded=0;orthogonalLoop=1;jettySize=auto;html=1;exitX=1;exitY=0.5;exitDx=0;exitDy=0;" edge="1" parent="1" source="TRvFklDj4OLgMswm-uFO-42" target="TRvFklDj4OLgMswm-uFO-43">
          <mxGeometry relative="1" as="geometry" />
        </mxCell>
        <mxCell id="TRvFklDj4OLgMswm-uFO-42" value="分隔棋子" style="rounded=1;whiteSpace=wrap;html=1;" vertex="1" parent="1">
          <mxGeometry x="340" y="370" width="100" height="40" as="geometry" />
        </mxCell>
        <mxCell id="TRvFklDj4OLgMswm-uFO-47" style="edgeStyle=orthogonalEdgeStyle;rounded=0;orthogonalLoop=1;jettySize=auto;html=1;exitX=1;exitY=0.5;exitDx=0;exitDy=0;entryX=0;entryY=0.5;entryDx=0;entryDy=0;" edge="1" parent="1" source="TRvFklDj4OLgMswm-uFO-43" target="TRvFklDj4OLgMswm-uFO-46">
          <mxGeometry relative="1" as="geometry" />
        </mxCell>
        <mxCell id="TRvFklDj4OLgMswm-uFO-43" value="预设棋子" style="rounded=1;whiteSpace=wrap;html=1;" vertex="1" parent="1">
          <mxGeometry x="470" y="370" width="100" height="40" as="geometry" />
        </mxCell>
        <mxCell id="TRvFklDj4OLgMswm-uFO-49" style="edgeStyle=orthogonalEdgeStyle;rounded=0;orthogonalLoop=1;jettySize=auto;html=1;exitX=1;exitY=0.5;exitDx=0;exitDy=0;entryX=0;entryY=0.5;entryDx=0;entryDy=0;" edge="1" parent="1" source="TRvFklDj4OLgMswm-uFO-46" target="TRvFklDj4OLgMswm-uFO-48">
          <mxGeometry relative="1" as="geometry" />
        </mxCell>
        <mxCell id="TRvFklDj4OLgMswm-uFO-46" value="隐藏颜色" style="rounded=1;whiteSpace=wrap;html=1;" vertex="1" parent="1">
          <mxGeometry x="600" y="370" width="100" height="40" as="geometry" />
        </mxCell>
        <mxCell id="TRvFklDj4OLgMswm-uFO-48" value="羊了个羊" style="rounded=1;whiteSpace=wrap;html=1;" vertex="1" parent="1">
          <mxGeometry x="720" y="370" width="100" height="40" as="geometry" />
        </mxCell>
      </root>
    </mxGraphModel>
  </diagram>
</mxfile>
